<svg width="20" height="20" viewBox="0 0 40 40" fill="none" xmlns="http://www.w3.org/2000/svg">
<path fill-rule="evenodd" clip-rule="evenodd" d="M16.6676 37.7778V30.2222L13.1696 27.5022C10.3739 28.1078 7.58597 29.0111 5.47363 30.1311C4.29134 30.7578 3.42685 31.3967 2.88238 31.9978C2.34902 32.5889 2.22234 33.0256 2.22234 33.3333V37.7778H16.6676ZM0 40V33.3333C0 29.2656 7.24484 26.3633 13.7263 25.12L18.8899 29.1356V37.7778H20.0011V40H0Z" fill="black"/>
<path fill-rule="evenodd" clip-rule="evenodd" d="M12.2896 25.7311L9.41718 33.6311L17.9621 32.2067L17.5954 30.0156L12.8062 30.8133L14.3786 26.4911L12.2896 25.7311Z" fill="black"/>
<path fill-rule="evenodd" clip-rule="evenodd" d="M18.5566 33.0956C18.3541 32.8989 18.0843 32.7867 17.8021 32.7817C17.5198 32.7767 17.2463 32.8793 17.037 33.0687C16.8276 33.2581 16.6982 33.52 16.675 33.8013C16.6518 34.0826 16.7366 34.3622 16.912 34.5833L17.7787 33.8889L16.912 34.5844L16.9143 34.5867L16.9165 34.59L16.922 34.5967L16.9331 34.6111C16.9619 34.6462 16.9931 34.6793 17.0265 34.71C17.0765 34.7578 17.1365 34.81 17.2098 34.8656C17.3554 34.9744 17.5476 35.0878 17.7954 35.1922C18.2921 35.3989 18.9988 35.5556 20.0011 35.5556C21.0034 35.5556 21.7101 35.4 22.2068 35.1922C22.4546 35.0889 22.6468 34.9744 22.7924 34.8644C22.8924 34.7894 22.9847 34.7045 23.0679 34.6111L23.079 34.5967L23.0857 34.59L23.089 34.5867V34.5844C23.0901 34.5844 23.0913 34.5833 22.2234 33.8889L23.0901 34.5833C23.2656 34.3622 23.3504 34.0826 23.3272 33.8013C23.304 33.52 23.1745 33.2581 22.9652 33.0687C22.7559 32.8793 22.4823 32.7767 22.2001 32.7817C21.9179 32.7867 21.6481 32.8989 21.4456 33.0956C21.4152 33.1125 21.3836 33.1273 21.3512 33.14C21.1812 33.2122 20.7767 33.3333 20.0011 33.3333C19.2255 33.3333 18.821 33.2111 18.651 33.1411C18.6186 33.1284 18.587 33.1136 18.5566 33.0967V33.0956Z" fill="black"/>
<path fill-rule="evenodd" clip-rule="evenodd" d="M31.594 21.7522C31.7406 21.8962 31.8444 22.0781 31.8938 22.2776C31.9433 22.4771 31.9364 22.6864 31.874 22.8822C31.8643 22.9122 31.8562 22.9426 31.8495 22.9733L31.2306 25.8622C31.1817 26.0929 31.1849 26.3316 31.2401 26.5608C31.2952 26.7901 31.4008 27.0042 31.5493 27.1874C31.6977 27.3706 31.8852 27.5184 32.0981 27.6199C32.3109 27.7213 32.5438 27.774 32.7796 27.774C33.0154 27.774 33.2482 27.7213 33.4611 27.6199C33.674 27.5184 33.8615 27.3706 34.0099 27.1874C34.1584 27.0042 34.264 26.7901 34.3191 26.5608C34.3743 26.3316 34.3775 26.0929 34.3286 25.8622L33.7096 22.9733C33.703 22.9426 33.6948 22.9122 33.6852 22.8822C33.6229 22.6864 33.6162 22.4771 33.6658 22.2777C33.7154 22.0782 33.8193 21.8965 33.966 21.7525C34.1126 21.6086 34.2964 21.5082 34.4967 21.4624C34.6971 21.4167 34.9062 21.4274 35.1008 21.4933C36.3888 21.9312 37.527 22.7238 38.3845 23.78C39.2419 24.8361 39.7837 26.1129 39.9475 27.4634C40.1113 28.8138 39.8904 30.1831 39.3104 31.4136C38.7304 32.6441 37.8147 33.6858 36.6687 34.4189V38.8889C36.6687 39.1836 36.5516 39.4662 36.3432 39.6746C36.1349 39.8829 35.8522 40 35.5575 40H30.0017C29.707 40 29.4243 39.8829 29.2159 39.6746C29.0076 39.4662 28.8905 39.1836 28.8905 38.8889V34.42C27.7439 33.6871 26.8276 32.6453 26.2471 31.4145C25.6666 30.1837 25.4456 28.814 25.6094 27.4632C25.7733 26.1123 26.3153 24.8351 27.1732 23.7788C28.031 22.7224 29.1698 21.9298 30.4584 21.4922C30.6532 21.4262 30.8625 21.4156 31.063 21.4615C31.2635 21.5074 31.4473 21.608 31.594 21.7522ZM36.3887 24.8722L36.5009 25.3967C36.6198 25.9515 36.6131 26.5259 36.4813 27.0778C36.3495 27.6297 36.0959 28.1452 35.7392 28.5864C35.3824 29.0277 34.9315 29.3836 34.4194 29.6281C33.9073 29.8726 33.3471 29.9995 32.7796 29.9995C32.2121 29.9995 31.6519 29.8726 31.1398 29.6281C30.6277 29.3836 30.1768 29.0277 29.82 28.5864C29.4633 28.1452 29.2097 27.6297 29.0779 27.0778C28.9461 26.5259 28.9394 25.9515 29.0583 25.3967L29.1694 24.8722C28.6292 25.4353 28.2283 26.1171 27.9987 26.8629C27.7692 27.6087 27.7174 28.3979 27.8476 29.1673C27.9777 29.9367 28.2861 30.665 28.7481 31.2939C29.2102 31.9227 29.813 32.4347 30.5084 32.7889C30.6975 32.8853 30.855 33.0339 30.9623 33.217C31.0696 33.4001 31.1222 33.6101 31.1139 33.8222L31.1128 33.8889V37.7778H34.4464V33.8889L34.4452 33.8222C34.4368 33.6102 34.4893 33.4003 34.5964 33.2172C34.7035 33.0341 34.8608 32.8855 35.0497 32.7889C35.7451 32.4347 36.3479 31.9227 36.8099 31.2939C37.272 30.665 37.5804 29.9367 37.7105 29.1673C37.8406 28.3979 37.7889 27.6087 37.5594 26.8629C37.3298 26.1171 36.9289 25.4353 36.3887 24.8722Z" fill="black"/>
<path fill-rule="evenodd" clip-rule="evenodd" d="M5.55585 38.8889V27.7778H7.77819V38.8889H5.55585Z" fill="black"/>
<path fill-rule="evenodd" clip-rule="evenodd" d="M11.1506 14.7156C11.035 15.9475 11.1778 17.19 11.57 18.3635C11.9622 19.537 12.5951 20.6158 13.4282 21.5307C14.2613 22.4456 15.2763 23.1765 16.4081 23.6766C17.5399 24.1767 18.7637 24.435 20.0011 24.435C21.2385 24.435 22.4622 24.1767 23.5941 23.6766C24.7259 23.1765 25.7408 22.4456 26.5739 21.5307C27.407 20.6158 28.0399 19.537 28.4321 18.3635C28.8243 17.19 28.9672 15.9475 28.8515 14.7156C28.176 14.8656 27.4404 14.9978 26.6537 15.1122C26.7137 16.0227 26.5862 16.9358 26.279 17.7949C25.9719 18.6541 25.4916 19.4411 24.868 20.1072C24.2443 20.7732 23.4906 21.3042 22.6535 21.6672C21.8163 22.0302 20.9135 22.2175 20.0011 22.2175C19.0886 22.2175 18.1858 22.0302 17.3487 21.6672C16.5115 21.3042 15.7578 20.7732 15.1342 20.1072C14.5105 19.4411 14.0303 18.6541 13.7231 17.7949C13.416 16.9358 13.2885 16.0227 13.3485 15.1122C12.6112 15.0075 11.878 14.8751 11.1506 14.7156Z" fill="black"/>
<path fill-rule="evenodd" clip-rule="evenodd" d="M22.2234 1.11111C22.5181 1.11111 22.8007 1.22818 23.0091 1.43655C23.2175 1.64493 23.3346 1.92754 23.3346 2.22223V5.55556C23.3346 5.85024 23.2175 6.13286 23.0091 6.34123C22.8007 6.54961 22.5181 6.66667 22.2234 6.66667C21.9287 6.66667 21.6461 6.54961 21.4377 6.34123C21.2293 6.13286 21.1122 5.85024 21.1122 5.55556V2.22223C21.1122 1.92754 21.2293 1.64493 21.4377 1.43655C21.6461 1.22818 21.9287 1.11111 22.2234 1.11111Z" fill="black"/>
<path fill-rule="evenodd" clip-rule="evenodd" d="M17.7788 1.11111C18.0735 1.11111 18.3561 1.22818 18.5645 1.43655C18.7729 1.64493 18.8899 1.92754 18.8899 2.22223V5.55556C18.8899 5.85024 18.7729 6.13286 18.5645 6.34123C18.3561 6.54961 18.0735 6.66667 17.7788 6.66667C17.4841 6.66667 17.2014 6.54961 16.9931 6.34123C16.7847 6.13286 16.6676 5.85024 16.6676 5.55556V2.22223C16.6676 1.92754 16.7847 1.64493 16.9931 1.43655C17.2014 1.22818 17.4841 1.11111 17.7788 1.11111Z" fill="black"/>
<path fill-rule="evenodd" clip-rule="evenodd" d="M12.7596 8.68111C12.7087 8.40854 12.5577 8.16486 12.3363 7.99792C12.1149 7.83098 11.8391 7.75285 11.563 7.77888C11.2869 7.80491 11.0306 7.93322 10.8443 8.13861C10.658 8.34399 10.5552 8.61161 10.5562 8.88889C10.5562 9.83334 11.3006 10.4122 11.7962 10.7078C12.3707 11.0511 13.1241 11.3222 13.9441 11.5356C15.5998 11.9667 17.7788 12.2222 20.0011 12.2222C22.2235 12.2222 24.4025 11.9667 26.0581 11.5356C26.8782 11.3222 27.6315 11.0511 28.206 10.7078C28.7016 10.4122 29.4461 9.83334 29.4461 8.88889C29.447 8.61161 29.3443 8.34399 29.158 8.13861C28.9717 7.93322 28.7153 7.80491 28.4392 7.77888C28.1632 7.75285 27.8873 7.83098 27.6659 7.99792C27.4445 8.16486 27.2935 8.40854 27.2426 8.68111C27.1873 8.72468 27.129 8.7644 27.0682 8.8C26.7504 8.98889 26.2259 9.19556 25.4992 9.38445C24.0624 9.75889 22.0757 10 20.0011 10C17.9266 10 15.9398 9.75889 14.503 9.38445C13.7763 9.19556 13.2519 8.98889 12.9341 8.8C12.8733 8.7644 12.815 8.72468 12.7596 8.68111ZM27.296 8.63C27.296 8.63 27.2937 8.63445 27.2848 8.64334C27.2878 8.63833 27.2916 8.63382 27.296 8.63ZM12.7174 8.64334C12.7085 8.63445 12.7063 8.63 12.7063 8.63L12.7174 8.64334Z" fill="black"/>
<path fill-rule="evenodd" clip-rule="evenodd" d="M21.1123 2.22222H18.8899L18.6066 3.37L17.4943 3.77556C15.1919 4.61555 13.3274 6.60667 12.5773 9.17333L12.3084 10.0911L11.4573 10.5267C10.7828 10.8722 10.375 11.2011 10.1606 11.4467C10.0991 11.5122 10.0475 11.5863 10.0072 11.6667C10.0305 11.72 10.0983 11.8356 10.2839 12.0156C10.6317 12.3522 11.2517 12.7578 12.1996 13.1456C14.0841 13.9167 16.842 14.4444 20.0011 14.4444C23.1601 14.4444 25.9181 13.9167 27.8015 13.1444C28.7505 12.7578 29.3705 12.3522 29.7183 12.0156C29.9038 11.8356 29.9716 11.72 29.995 11.6667C29.9547 11.5863 29.9031 11.5122 29.8416 11.4467C29.6272 11.2011 29.2194 10.8722 28.5449 10.5267L27.6937 10.0911L27.4248 9.17333C26.6748 6.60667 24.8091 4.61555 22.5079 3.77556L21.3967 3.37L21.1123 2.22222ZM30.005 11.6978L30.0027 11.6878L30.005 11.6989V11.6978ZM30.0027 11.6444C30.0028 11.6406 30.0036 11.6369 30.005 11.6333L30.0027 11.6444ZM9.99721 11.6333L9.99943 11.6444L9.99721 11.6333ZM9.99943 11.6878C9.99943 11.6944 9.99721 11.6989 9.99721 11.6989L9.99943 11.6878ZM10.4439 8.54889C11.3828 5.33778 13.7341 2.78222 16.7331 1.68778C16.8525 1.20601 17.1297 0.77808 17.5206 0.472192C17.9115 0.166305 18.3936 7.40808e-05 18.8899 5.73505e-08H21.1123C21.609 -0.000112739 22.0914 0.166163 22.4825 0.472287C22.8736 0.778411 23.1509 1.20673 23.2702 1.68889C26.2681 2.78222 28.6193 5.33889 29.5583 8.54889C31.2261 9.40444 32.224 10.4889 32.224 11.6667C32.224 14.4278 26.7515 16.6667 20.0011 16.6667C13.2507 16.6667 7.7782 14.4278 7.7782 11.6667C7.7782 10.4878 8.77603 9.40444 10.445 8.54889H10.4439Z" fill="black"/>
<path d="M21.1122 28.8889L23.3346 27.2222V40H21.1122V28.8889Z" fill="black"/>
<path d="M18.8899 37.7778H22.2234V40H18.8899V37.7778Z" fill="black"/>
</svg>
