<svg width="16" height="22" viewBox="0 0 30 35" fill="none" xmlns="http://www.w3.org/2000/svg">
<path d="M15 14.2188C15.3315 14.2188 15.6495 14.334 15.8839 14.5391C16.1183 14.7442 16.25 15.0224 16.25 15.3125V18.5938H20C20.3315 18.5938 20.6495 18.709 20.8839 18.9141C21.1183 19.1192 21.25 19.3974 21.25 19.6875C21.25 19.9776 21.1183 20.2558 20.8839 20.4609C20.6495 20.666 20.3315 20.7812 20 20.7812H16.25V24.0625C16.25 24.3526 16.1183 24.6308 15.8839 24.8359C15.6495 25.041 15.3315 25.1562 15 25.1562C14.6685 25.1562 14.3505 25.041 14.1161 24.8359C13.8817 24.6308 13.75 24.3526 13.75 24.0625V20.7812H10C9.66848 20.7812 9.35054 20.666 9.11612 20.4609C8.8817 20.2558 8.75 19.9776 8.75 19.6875C8.75 19.3974 8.8817 19.1192 9.11612 18.9141C9.35054 18.709 9.66848 18.5938 10 18.5938H13.75V15.3125C13.75 15.0224 13.8817 14.7442 14.1161 14.5391C14.3505 14.334 14.6685 14.2188 15 14.2188V14.2188Z" fill="black"/>
<path d="M30 9.84375V30.625C30 31.7853 29.4732 32.8981 28.5355 33.7186C27.5979 34.5391 26.3261 35 25 35H5C3.67392 35 2.40215 34.5391 1.46447 33.7186C0.526784 32.8981 0 31.7853 0 30.625V4.375C0 3.21468 0.526784 2.10188 1.46447 1.28141C2.40215 0.460936 3.67392 0 5 0L18.75 0L30 9.84375ZM22.5 9.84375C21.5054 9.84375 20.5516 9.49805 19.8483 8.88269C19.1451 8.26734 18.75 7.43274 18.75 6.5625V2.1875H5C4.33696 2.1875 3.70107 2.41797 3.23223 2.8282C2.76339 3.23844 2.5 3.79484 2.5 4.375V30.625C2.5 31.2052 2.76339 31.7616 3.23223 32.1718C3.70107 32.582 4.33696 32.8125 5 32.8125H25C25.663 32.8125 26.2989 32.582 26.7678 32.1718C27.2366 31.7616 27.5 31.2052 27.5 30.625V9.84375H22.5Z" fill="black"/>
</svg>
