<svg width="20" height="20" viewBox="0 0 35 35" fill="none" xmlns="http://www.w3.org/2000/svg">
<path d="M24.6094 25.1562C23.6359 25.1562 22.6843 24.8676 21.8749 24.3268C21.0655 23.7859 20.4347 23.0172 20.0622 22.1179C19.6896 21.2185 19.5922 20.2289 19.7821 19.2742C19.972 18.3194 20.4408 17.4424 21.1291 16.7541C21.8174 16.0657 22.6944 15.597 23.6492 15.4071C24.6039 15.2172 25.5935 15.3146 26.4929 15.6872C27.3923 16.0597 28.1609 16.6905 28.7018 17.4999C29.2426 18.3093 29.5313 19.2609 29.5313 20.2344C29.5298 21.5393 29.0108 22.7903 28.0881 23.7131C27.1654 24.6358 25.9143 25.1548 24.6094 25.1562ZM24.6094 17.5C24.0686 17.5 23.5399 17.6604 23.0902 17.9608C22.6406 18.2613 22.2901 18.6883 22.0831 19.188C21.8762 19.6876 21.822 20.2374 21.9275 20.7678C22.033 21.2982 22.2935 21.7855 22.6759 22.1679C23.0583 22.5503 23.5455 22.8107 24.0759 22.9162C24.6063 23.0217 25.1561 22.9676 25.6558 22.7606C26.1554 22.5536 26.5825 22.2032 26.8829 21.7535C27.1834 21.3038 27.3438 20.7752 27.3438 20.2344C27.3429 19.5094 27.0545 18.8144 26.5419 18.3018C26.0293 17.7892 25.3343 17.5009 24.6094 17.5Z" fill="black"/>
<path d="M30.625 8.75H28.4375V3.28125H20.7812V8.75H18.5938C18.0138 8.75058 17.4577 8.98123 17.0476 9.39134C16.6375 9.80145 16.4068 10.3575 16.4062 10.9375V30.625C16.4068 31.205 16.6375 31.761 17.0476 32.1712C17.4577 32.5813 18.0138 32.8119 18.5938 32.8125H30.625C31.2049 32.8116 31.7608 32.5809 32.1708 32.1708C32.5809 31.7608 32.8116 31.2049 32.8125 30.625V10.9375C32.8119 10.3575 32.5813 9.80145 32.1712 9.39134C31.761 8.98123 31.205 8.75058 30.625 8.75ZM22.9688 5.46875H26.25V8.75H22.9688V5.46875ZM18.5938 30.625V10.9375H30.625L30.6272 30.625H18.5938Z" fill="black"/>
<path d="M2.1875 15.3125H5.46875V18.5938H2.1875V15.3125Z" fill="black"/>
<path d="M7.65625 9.84375H10.9375V13.125H7.65625V9.84375Z" fill="black"/>
<path d="M2.1875 9.84375H5.46875V13.125H2.1875V9.84375Z" fill="black"/>
<path d="M13.125 4.375H16.4062V7.65625H13.125V4.375Z" fill="black"/>
<path d="M7.65625 4.375H10.9375V7.65625H7.65625V4.375Z" fill="black"/>
<path d="M2.1875 4.375H5.46875V7.65625H2.1875V4.375Z" fill="black"/>
</svg>
