<svg width="20" height="20" viewBox="0 0 35 35" fill="none" xmlns="http://www.w3.org/2000/svg">
<path d="M5.83331 5.83334V29.1667C5.83331 29.9402 6.1406 30.6821 6.68758 31.2291C7.23457 31.7761 7.97643 32.0833 8.74998 32.0833H26.25C27.0235 32.0833 27.7654 31.7761 28.3124 31.2291C28.8594 30.6821 29.1666 29.9402 29.1666 29.1667V12.1654C29.1666 11.7769 29.0889 11.3922 28.9382 11.0341C28.7874 10.676 28.5666 10.3516 28.2887 10.08L21.8137 3.74792C21.2688 3.21513 20.5371 2.91677 19.775 2.91667H8.74998C7.97643 2.91667 7.23457 3.22396 6.68758 3.77094C6.1406 4.31792 5.83331 5.05979 5.83331 5.83334V5.83334Z" stroke="black" stroke-width="2" stroke-linecap="round" stroke-linejoin="round"/>
<path d="M20.4166 2.91667V8.75001C20.4166 9.52355 20.7239 10.2654 21.2709 10.8124C21.8179 11.3594 22.5597 11.6667 23.3333 11.6667H29.1666" stroke="black" stroke-width="2" stroke-linejoin="round"/>
</svg>
