<svg width="20" height="20" viewBox="0 0 35 35" fill="none" xmlns="http://www.w3.org/2000/svg">
<path d="M26.25 23.3333H23.3334V21.875H11.6667V23.3333H8.75002V21.875H2.91669V29.1667H32.0834V21.875H26.25V23.3333ZM29.1667 11.6667H24.7917V8.75C24.7917 7.14583 23.4792 5.83333 21.875 5.83333H13.125C11.5209 5.83333 10.2084 7.14583 10.2084 8.75V11.6667H5.83335C4.22919 11.6667 2.91669 12.9792 2.91669 14.5833V20.4167H8.75002V17.5H11.6667V20.4167H23.3334V17.5H26.25V20.4167H32.0834V14.5833C32.0834 12.9792 30.7709 11.6667 29.1667 11.6667ZM21.875 11.6667H13.125V8.75H21.875V11.6667Z" fill="black"/>
</svg>
