<svg width="20" height="20" viewBox="0 0 35 35" fill="none" xmlns="http://www.w3.org/2000/svg">
<path d="M30.2925 14.8094L28.2975 8.82437C28.0081 7.95299 27.4515 7.19497 26.7066 6.65803C25.9618 6.12108 25.0667 5.83251 24.1486 5.83333H10.8515C9.9333 5.83251 9.03821 6.12108 8.29339 6.65803C7.54858 7.19497 6.99192 7.95299 6.70252 8.82437L4.70752 14.8094C4.17701 15.0314 3.72396 15.4052 3.40533 15.8839C3.08669 16.3627 2.91669 16.9249 2.91669 17.5V24.7917C2.91669 25.8679 3.50585 26.7983 4.37502 27.3044V30.625C4.37502 31.0118 4.52867 31.3827 4.80216 31.6562C5.07565 31.9297 5.44658 32.0833 5.83335 32.0833H7.29169C7.67846 32.0833 8.04939 31.9297 8.32288 31.6562C8.59638 31.3827 8.75002 31.0118 8.75002 30.625V27.7083H26.25V30.625C26.25 31.0118 26.4037 31.3827 26.6772 31.6562C26.9506 31.9297 27.3216 32.0833 27.7084 32.0833H29.1667C29.5535 32.0833 29.9244 31.9297 30.1979 31.6562C30.4714 31.3827 30.625 31.0118 30.625 30.625V27.3044C31.0675 27.0506 31.4352 26.6848 31.6913 26.2436C31.9473 25.8025 32.0825 25.3017 32.0834 24.7917V17.5C32.0834 16.9249 31.9134 16.3627 31.5947 15.8839C31.2761 15.4052 30.823 15.0314 30.2925 14.8094ZM10.8515 8.75H24.1471C24.7756 8.75 25.3327 9.14958 25.5311 9.7475L27.144 14.5833H7.85606L9.46752 9.7475C9.56428 9.45699 9.75002 9.20431 9.99843 9.02527C10.2468 8.84623 10.5453 8.74992 10.8515 8.75ZM8.02085 23.3333C7.73349 23.3332 7.44896 23.2765 7.18351 23.1665C6.91806 23.0564 6.67688 22.8952 6.47376 22.6919C6.27063 22.4886 6.10952 22.2474 5.99964 21.9818C5.88976 21.7163 5.83326 21.4317 5.83335 21.1444C5.83345 20.857 5.89014 20.5725 6.0002 20.307C6.11026 20.0416 6.27152 19.8004 6.47479 19.5973C6.67805 19.3941 6.91933 19.233 7.18486 19.1232C7.45038 19.0133 7.73495 18.9568 8.02231 18.9569C8.60267 18.9571 9.15917 19.1878 9.56941 19.5983C9.97965 20.0088 10.21 20.5655 10.2098 21.1458C10.2096 21.7262 9.97889 22.2827 9.56838 22.6929C9.15787 23.1032 8.60121 23.3335 8.02085 23.3333ZM26.9792 23.3333C26.6918 23.3332 26.4073 23.2765 26.1418 23.1665C25.8764 23.0564 25.6352 22.8952 25.4321 22.6919C25.229 22.4886 25.0679 22.2474 24.958 21.9818C24.8481 21.7163 24.7916 21.4317 24.7917 21.1444C24.7918 20.857 24.8485 20.5725 24.9585 20.307C25.0686 20.0416 25.2299 19.8004 25.4331 19.5973C25.6364 19.3941 25.8777 19.233 26.1432 19.1232C26.4087 19.0133 26.6933 18.9568 26.9806 18.9569C27.561 18.9571 28.1175 19.1878 28.5277 19.5983C28.938 20.0088 29.1683 20.5655 29.1681 21.1458C29.168 21.7262 28.9372 22.2827 28.5267 22.6929C28.1162 23.1032 27.5595 23.3335 26.9792 23.3333Z" fill="black"/>
</svg>
